<svg xmlns="http://www.w3.org/2000/svg" viewBox="0 0 400 400">
  <style>
    path { fill: #000; }
    @media (prefers-color-scheme: dark) { 
      path { fill: #fff; } 
    }
  </style>
  <path d="m283.72 90.72-26.55 167.81c-.57 3.4-.85 5.87-.85 7.43 0 2.54.7 4.53 2.12 5.94 1.41 1.41 3.53 2.12 6.35 2.12 6.5 0 13.84-2.9 22.03-8.7 12.14-8.49 22.13-20.76 29.97-36.82s11.75-35.47 11.75-58.25c0-37.35-10.72-66.84-32.15-88.49-21.44-21.65-50.19-32.47-86.27-32.47-26.6 0-50.83 6.37-72.69 19.1-21.86 12.74-38.7 31.2-50.51 55.4S69.2 174.73 69.2 204.02c0 45.57 12.85 81.68 38.55 108.36 25.7 26.67 58.87 40.01 99.51 40.01 19.82 0 38.9-3.33 57.24-9.98 18.34-6.66 35.93-16.57 52.78-29.74h43.54c-11.61 13.74-22.66 24.5-33.13 32.29-15.44 11.47-33.35 20.82-53.74 28.04s-42.34 10.83-65.84 10.83c-32.71 0-62.09-7.57-88.15-22.71-26.06-15.14-46.41-36.72-61.07-64.74S36.9 237.51 36.9 203.82c0-35.38 7.61-67.54 22.83-96.48 15.22-28.94 35.43-51.13 60.64-66.55 25.2-15.43 55.08-23.14 89.63-23.14 44.6 0 80.89 14.15 108.86 42.45 27.96 28.3 41.95 64.88 41.95 109.73 0 26.6-5.45 50.94-16.36 73.01-10.91 22.07-26.91 39.55-48 52.42-16.29 9.91-31.58 14.86-45.88 14.86-8.5 0-15.44-1.98-20.82-5.95-5.38-3.96-9.35-10.26-11.89-18.9-9.49 9.21-18.13 15.68-25.91 19.43-7.79 3.75-16.21 5.63-25.28 5.63-18.83 0-35.05-7.85-48.64-23.55s-20.39-38.2-20.39-67.48c0-34.66 8.71-66 26.13-94.01 17.42-28.01 39.01-42.02 64.78-42.02 10.05 0 18.94 2.34 26.66 7.01 7.72 4.67 15.47 12.82 23.26 24.43l3.82-24h41.43zM142.26 229.7c0 16.83 3.61 29.91 10.83 39.24 5.38 6.93 12.25 10.39 20.6 10.39 9.06 0 17.27-3.85 24.64-11.56 7.36-7.71 13.81-23.08 19.33-46.14 5.52-23.05 8.28-43.77 8.28-62.15 0-13.86-2.97-24.32-8.92-31.39-5.95-7.07-13.03-10.61-21.24-10.61-9.35 0-17.56 3.54-24.64 10.61-9.49 9.48-16.67 24.5-21.56 45.08-4.88 20.57-7.32 39.42-7.32 56.53z"/>
</svg>