<svg xmlns="http://www.w3.org/2000/svg" viewBox="0 0 400 400">
  <style>
    path { fill: #000; }
    @media (prefers-color-scheme: dark) { 
      path { fill: #fff; } 
    }
  </style>
  <path d="M233.88 260.64h-80.71v-8.07c0-13.73 1.56-24.88 4.67-33.45 3.11-8.57 7.75-16.39 13.91-23.47 6.16-7.08 20-19.54 41.52-37.38 11.47-9.35 17.21-17.91 17.21-25.7 0-7.79-2.3-13.84-6.9-18.16-4.6-4.32-11.58-6.48-20.92-6.48-10.06 0-18.37 3.33-24.96 9.98-6.58 6.66-10.8 18.27-12.64 34.83l-82.41-10.2c2.83-30.3 13.84-54.69 33.03-73.17 19.19-18.48 48.6-27.72 88.25-27.72 30.87 0 55.79 6.45 74.77 19.33 25.77 17.42 38.66 40.64 38.66 69.67 0 12.04-3.33 23.65-9.98 34.83-6.66 11.19-20.25 24.85-40.78 40.99-14.3 11.33-23.33 20.43-27.08 27.29-3.77 6.88-5.64 15.84-5.64 26.88zm-83.48 21.45h86.45v76.25H150.4v-76.25z"/>
</svg>