<svg xmlns="http://www.w3.org/2000/svg" viewBox="0 0 400 400">
  <style>
    path { fill: #000; }
    @media (prefers-color-scheme: dark) { 
      path { fill: #fff; } 
    }
  </style>
  <path d="m322.34 106.76-79.01 12.53c-3.97-10.05-7.54-17.03-10.73-20.92-3.19-3.89-8.46-7.82-15.82-11.79v61.45c43.04 11.48 71.79 23.6 86.23 36.35 19.12 17.15 28.67 38.9 28.67 65.25 0 15.45-3.44 29.62-10.3 42.51-6.87 12.9-15.65 23.67-26.34 32.31s-22.06 14.92-34.09 18.81c-12.04 3.89-26.76 6.2-44.18 6.91v40.14h-31.01v-40.14c-20.82-1.84-37.7-5.2-50.66-10.09-12.96-4.88-24.14-11.65-33.56-20.28-9.42-8.64-16.67-17.95-21.77-27.93s-8.92-22.05-11.47-36.21l85.81-9.98c2.55 14.02 5.98 24.14 10.3 30.37s11.43 11.76 21.35 16.57v-75.05c-28.6-7.94-48.89-14.81-60.85-20.62-11.97-5.81-22.34-15.13-31.12-27.95-8.78-12.82-13.17-28.44-13.17-46.87 0-25.22 8.81-46.3 26.44-63.23 17.63-16.93 43.86-26.32 78.69-28.16V9.69h31.01v21.03c31.72 1.98 55.97 9.49 72.75 22.51 16.8 13.03 27.74 30.87 32.83 53.53zM185.77 85.52c-9.06 2.99-15.37 6.69-18.9 11.1-3.54 4.41-5.31 9.6-5.31 15.58 0 6.26 1.8 11.71 5.39 16.33 3.59 4.63 9.87 8.5 18.83 11.61V85.52zm31.01 209.21c12.03-2.7 20.85-7.14 26.44-13.32 5.59-6.18 8.39-13.1 8.39-20.78 0-6.68-2.37-12.82-7.1-18.43-4.73-5.61-13.97-10.82-27.73-15.64v68.17z"/>
</svg>