<svg xmlns="http://www.w3.org/2000/svg" viewBox="0 0 400 400">
  <style>
    path { fill: #000; }
    @media (prefers-color-scheme: dark) { 
      path { fill: #fff; } 
    }
  </style>
  <path d="M3.53 115.46c0-14.44 3.15-28.18 9.45-41.21 6.3-13.03 15.93-23.05 28.89-30.05s28.28-10.51 45.98-10.51c26.05 0 46.59 7.43 61.6 22.3 15.01 14.87 22.51 34.69 22.51 59.47 0 24.92-7.51 44.82-22.51 59.69-15.01 14.87-35.54 22.3-61.6 22.3-17.7 0-33.03-3.5-45.98-10.51s-22.59-17.03-28.89-30.05c-6.3-13.03-9.45-26.84-9.45-41.43zm59.68.43c0 17.56 2.83 30.3 8.5 38.23 3.68 5.24 9.06 7.86 16.14 7.86s12.39-2.62 15.93-7.86c5.66-7.93 8.5-20.67 8.5-38.23 0-17.42-2.83-30.16-8.5-38.23-3.54-5.1-8.85-7.65-15.93-7.65s-12.46 2.55-16.14 7.65c-5.67 7.93-8.5 20.67-8.5 38.23zm204.69-82.2h44.89L132.9 366.31H88.49L267.9 33.69zM228.04 283.9c0-14.58 3.11-28.36 9.35-41.31 6.23-12.96 15.86-22.97 28.89-30.05 13.03-7.08 28.32-10.62 45.88-10.62 26.2 0 46.8 7.47 61.81 22.41 15.01 14.94 22.51 34.8 22.51 59.58s-7.51 44.64-22.51 59.58c-15.01 14.94-35.61 22.41-61.81 22.41-17.56 0-32.85-3.54-45.88-10.62-13.03-7.08-22.66-17.1-28.89-30.05-6.24-12.98-9.35-26.75-9.35-41.33zm59.68.42c0 17.56 2.83 30.3 8.5 38.23 3.54 5.1 8.85 7.65 15.93 7.65s12.46-2.55 16.14-7.65c5.66-7.93 8.5-20.67 8.5-38.23 0-17.56-2.83-30.37-8.5-38.44-3.68-5.1-9.06-7.65-16.14-7.65s-12.39 2.62-15.93 7.86c-5.67 7.93-8.5 20.68-8.5 38.23z"/>
</svg>