<svg xmlns="http://www.w3.org/2000/svg" viewBox="0 0 400 400">
  <style>
    path { fill: #000; }
    @media (prefers-color-scheme: dark) { 
      path { fill: #fff; } 
    }
  </style>
  <path d="m276.89 204.35 67.54 15.08c-3.54 12.46-6.94 22.44-10.2 29.95-3.26 7.51-7.86 16.35-13.81 26.55l32.5 22.3c3.96 2.55 9.06 5.6 15.29 9.13l-46.52 53.53c-8.5-4.53-17.31-9.77-26.44-15.72-9.13-5.95-17.31-11.04-24.53-15.29-15.01 9.91-30.02 17.13-45.03 21.67-20.82 6.23-44.46 9.35-70.94 9.35-41.49 0-72.36-8.64-92.61-25.91s-30.37-38.23-30.37-62.87c0-17.7 5.95-34.44 17.84-50.23s31.36-29.13 58.41-40.04c-11.33-13.73-19.12-25.66-23.36-35.79-4.25-10.12-6.37-20.42-6.37-30.9 0-22.09 8.42-40.28 25.28-54.59 16.85-14.3 42.41-21.45 76.68-21.45 34.97 0 60.67 6.8 77.1 20.39 16.42 13.59 24.64 29.88 24.64 48.85 0 10.62-2.52 20.81-7.54 30.59-5.03 9.77-11.08 17.7-18.16 23.79s-19.75 15.15-38.02 27.19c15.15 15.15 30.94 29.24 47.37 42.27 4.38-8.8 8.13-18.08 11.25-27.85zm-130.2 21.03c-11.89 8.36-19.79 15.51-23.68 21.45-3.9 5.95-5.84 12.25-5.84 18.9 0 10.34 4.46 19.54 13.38 27.61 8.92 8.07 20.53 12.11 34.83 12.11 15.43 0 32.78-6.02 52.04-18.05-18.41-14.15-41.99-34.83-70.73-62.02zm30.8-75.61c11.18-6.09 19.82-12.71 25.91-19.86 6.09-7.15 9.13-13.91 9.13-20.28 0-6.65-2.55-12.28-7.65-16.89-5.1-4.6-12.11-6.9-21.03-6.9-8.78 0-15.93 2.55-21.45 7.65-5.52 5.1-8.28 11.12-8.28 18.05 0 8.78 7.79 21.52 23.37 38.23z"/>
</svg>