<?xml version="1.0" encoding="utf-8"?>
<!-- Generator: Adobe Illustrator 26.0.3, SVG Export Plug-In . SVG Version: 6.00 Build 0)  -->
<svg version="1.1" id="Calque_1" xmlns="http://www.w3.org/2000/svg" xmlns:xlink="http://www.w3.org/1999/xlink" x="0px" y="0px"
	 viewBox="0 0 10 10" style="enable-background:new 0 0 10 10;" xml:space="preserve">
<style type="text/css">
	.st0{fill:#9FC490;}
</style>
<g id="br">
	<path class="st0" d="M1.47,0.2c0,0.69-0.07,1.19-0.2,1.49S0.95,2.22,0.72,2.34C0.56,2.43,0.31,2.48,0,2.51v1.97h0.17
		c0.47,0,1-0.08,1.58-0.23c0.43-0.11,0.82-0.34,1.2-0.68S3.61,2.8,3.82,2.3s0.31-1.22,0.31-2.14c0-0.05-0.01-0.1-0.01-0.15H1.46
		C1.46,0.07,1.47,0.13,1.47,0.2z"/>
</g>
<g id="bl">
	<path class="st0" d="M10,2.51C9.86,2.52,9.71,2.53,9.53,2.53H8.88V0H6.23v4.48H10V2.51z"/>
</g>
<g id="tr">
	<path class="st0" d="M1.02,8.34C1.29,8.64,1.44,9.21,1.46,10h2.67c-0.01-0.53-0.07-1.04-0.2-1.51C3.78,7.96,3.55,7.51,3.24,7.11
		S2.53,6.41,2.05,6.2s-1.1-0.31-1.88-0.31H0v1.98C0.45,7.92,0.79,8.08,1.02,8.34z"/>
</g>
<g id="tl">
	<path class="st0" d="M8.88,10V7.83h0.66c0.16,0,0.31,0.01,0.46,0.03V5.89H6.23V10H8.88z"/>
</g>
</svg>
