<?xml version="1.0" encoding="utf-8"?>
<!-- Generator: Adobe Illustrator 26.0.3, SVG Export Plug-In . SVG Version: 6.00 Build 0)  -->
<svg version="1.1" xmlns="http://www.w3.org/2000/svg" xmlns:xlink="http://www.w3.org/1999/xlink" x="0px" y="0px"
	 viewBox="0 0 10 10" style="enable-background:new 0 0 10 10;" xml:space="preserve">
<style type="text/css">
	.st0{display:none;}
	.st1{display:inline;}
	.st2{fill:#9FC490;}
	.st3{display:inline;fill:#26471F;}
</style>
<g id="Calque_1" class="st0">
	<g class="st1">
		<path class="st2" d="M0.33,0.71h2.95L5,3.6l1.73-2.9h2.93L6.33,5.7v3.6H3.67V5.7L0.33,0.71z"/>
	</g>
</g>
<g id="Calque_3" class="st0">
	<rect class="st3" width="5" height="5"/>
</g>
<g id="Calque_3_-_copie">
</g>
<g id="Calque_1_-_copie_2">
	<polygon class="st2" points="0,0 0,4.29 1.33,4.29 1.33,0.7 1.8,0 	"/>
</g>
<g id="Calque_1_-_copie">
	<polygon class="st2" points="10,4.29 10,0 8.21,0 8.67,0.7 8.67,4.29 	"/>
</g>
<g id="bas_l">
	<polygon class="st2" points="0,8.6 0,8.59 0,10 1.8,10 4.67,5.71 1.74,5.71 	"/>
</g>
<g id="bas_r">
	<polygon class="st2" points="10,8.59 8.27,5.71 5.33,5.71 8.21,10 10,10 	"/>
</g>
<g id="repere">
</g>
</svg>
