<?xml version="1.0" encoding="utf-8"?>
<!-- Generator: Adobe Illustrator 26.0.3, SVG Export Plug-In . SVG Version: 6.00 Build 0)  -->
<svg version="1.1" xmlns="http://www.w3.org/2000/svg" xmlns:xlink="http://www.w3.org/1999/xlink" x="0px" y="0px"
	 viewBox="0 0 10 10" style="enable-background:new 0 0 10 10;" xml:space="preserve">
<style type="text/css">
	.st0{fill:#9FC490;}
</style>
<g id="Calque_2_-_copie_3">
	<path class="st0" d="M0.27,0v1.18h1.77v0.81C1.7,2.2,1.39,2.35,1.12,2.43C0.85,2.52,0.57,2.56,0.27,2.56
		c-0.1,0-0.18-0.01-0.27-0.02v1.9c0.05,0,0.09,0.01,0.14,0.01c0.83,0,1.54-0.1,2.15-0.29s1.3-0.56,2.08-1.09V0H0.27z"/>
</g>
<g id="Calque_2_-_copie_2">
	<path class="st0" d="M10,2.54C9.51,2.49,9.11,2.3,8.81,1.96C8.46,1.57,8.29,0.91,8.29,0H5.63c0,0.89,0.18,1.68,0.53,2.37
		c0.35,0.69,0.85,1.21,1.49,1.55c0.61,0.33,1.4,0.5,2.35,0.52V2.54z"/>
</g>
<g id="Calque_2_-_copie">
	<g>
		<rect x="0.27" y="9.4" class="st0" width="4.1" height="0.6"/>
		<path class="st0" d="M1.7,8.45l2.56-0.46C4.1,7.44,3.87,6.98,3.56,6.62s-0.7-0.63-1.17-0.8S1.2,5.56,0.26,5.56
			C0.17,5.56,0.09,5.57,0,5.57v1.9c0.07-0.01,0.13-0.02,0.2-0.02c0.39,0,0.71,0.09,0.96,0.26C1.41,7.87,1.59,8.12,1.7,8.45z"/>
	</g>
</g>
<g id="Calque_3">
	<path class="st0" d="M8.29,9.97c0-0.88,0.17-1.51,0.52-1.92C9.11,7.7,9.51,7.51,10,7.46v-1.9C9.14,5.59,8.43,5.72,7.91,5.97
		c-0.75,0.36-1.31,0.89-1.7,1.58S5.63,9.06,5.63,10c0,0,0,0,0,0h2.66C8.29,9.99,8.29,9.98,8.29,9.97z"/>
</g>
</svg>
